<svg width="253" height="223" viewBox="0 0 253 223" fill="none" xmlns="http://www.w3.org/2000/svg">
<path fill-rule="evenodd" clip-rule="evenodd" d="M119.181 0.360586C116.904 0.856002 113.782 2.3516 111.829 3.88296C110.159 5.19316 98.3895 16.7927 67.6236 47.4502L49.5914 65.4191L31.7259 65.4238C11.783 65.4293 11.6191 65.4419 8.15059 67.2616C5.16874 68.8259 2.74777 71.3369 1.28408 74.3836L0.106472 76.8349L0.0322009 110.532C-0.0406949 143.492 -0.0302419 144.268 0.504786 146.017C1.72558 150.008 4.59768 153.404 8.28895 155.22C11.8815 156.988 12.1673 157.01 31.7405 157.017C48.0177 157.023 49.3997 157.06 50.0626 157.504C50.4571 157.767 64.0746 171.251 80.3232 187.468C96.5721 203.684 110.654 217.585 111.618 218.358C115.847 221.752 120.951 223.172 125.099 222.107C129.899 220.874 133.181 217.738 135.029 212.616C136.647 208.134 136.545 215.015 136.545 110.119C136.545 18.233 136.521 13.4738 136.053 11.6413C133.89 3.18592 127.091 -1.35975 119.181 0.360586ZM124.372 10.6724C124.752 10.9715 125.357 11.8071 125.715 12.5292L126.367 13.8419V110.257V206.672L125.746 208.647C124.607 212.271 122.869 213.11 119.628 211.602C117.932 210.813 118.233 211.106 76.3775 169.408C58.4297 151.528 51.7874 144.743 51.3357 143.826L50.7209 142.579L50.6463 111.791C50.5801 84.3943 50.6197 80.8353 51.007 79.4696C51.438 77.9506 51.7755 77.6023 84.5035 44.8952C114.558 14.86 117.725 11.7769 119.328 10.9918C121.454 9.95064 123.305 9.83346 124.372 10.6724ZM192.925 19.7231C190.086 21.0126 189.062 24.2239 190.654 26.8451C191.363 28.012 192.308 28.7055 195.825 30.6385C212.089 39.578 225.778 54.0548 234.044 71.0582C238.335 79.8871 241.056 88.957 242.502 99.2537C242.877 101.924 242.985 104.596 242.988 111.22C242.992 118.602 242.91 120.319 242.378 124.011C240.253 138.749 234.977 152.076 226.467 164.196C218.609 175.387 207.375 185.511 195.807 191.827C190.967 194.469 189.969 195.55 189.969 198.151C189.969 202.312 193.891 204.215 198.102 202.098C202.949 199.661 210.207 194.935 215.218 190.953C219.299 187.711 227.573 179.398 230.923 175.175C238.881 165.144 244.14 155.458 248.1 143.541C250.022 137.755 250.88 134.338 252.123 127.509C252.786 123.861 252.843 122.89 252.963 113.043C253.049 105.959 252.986 101.572 252.77 99.7018C250.563 80.5558 242.924 62.2304 230.853 47.1264C227.49 42.9182 218.936 34.4125 214.726 31.0899C207.091 25.0635 197.156 19.187 194.646 19.212C194.311 19.2153 193.536 19.4452 192.925 19.7231ZM175.056 46.5644C172.912 47.347 171.337 49.9613 171.764 52.0321C172.178 54.0399 173.004 54.839 177.504 57.5827C188.74 64.4324 198.074 75.5857 203.071 88.1315C204.331 91.2952 205.852 96.8265 206.582 100.904C207.318 105.016 207.573 112.814 207.117 117.282C205.035 137.681 193.687 155.366 176.046 165.706C172.748 167.639 171.543 169.51 172.007 171.981C172.422 174.199 174.673 176.001 177.027 176.001C179.886 176.001 188.714 170.07 195.246 163.762C201.488 157.733 206.235 151.16 210.145 143.129C213.613 136.007 215.672 129.409 216.924 121.398C217.521 117.583 217.593 105.957 217.045 102.005C215.514 90.9607 211.594 80.3471 205.667 71.1957C200.625 63.4102 193.088 55.7729 185.274 50.5299C179.528 46.6747 177.215 45.7769 175.056 46.5644ZM41.3801 76.3529C40.584 78.4276 40.543 80.1526 40.5455 111.495C40.5477 139.905 40.5961 143.562 40.9867 144.848L41.4252 146.292L27.7805 146.286C15.0685 146.281 14.0584 146.245 13.0079 145.768C12.3879 145.486 11.5833 144.839 11.2199 144.33L10.5595 143.404V111.22V79.0355L11.2001 78.1373C11.9516 77.0838 13.151 76.3928 14.6856 76.1296C15.2908 76.0259 21.5862 75.9254 28.6753 75.9065C40.8395 75.874 41.5542 75.899 41.3801 76.3529ZM152.855 78.6358C151.45 79.3777 150.373 81.2683 150.373 82.9925C150.373 85.6288 151.7 87.0246 155.649 88.5425C159.47 90.0108 161.728 91.3769 164.289 93.7692C169.542 98.6744 172.16 105.131 171.811 112.32C171.553 117.655 169.912 122.162 166.812 126.052C163.827 129.797 160.443 132.162 155.177 134.185C151.62 135.55 150.373 136.918 150.373 139.453C150.373 140.384 150.588 141.138 151.105 142.019C152.689 144.723 155.53 145.047 160.367 143.076C171.468 138.554 179.258 129.166 181.553 117.546C182.135 114.598 182.058 107.096 181.417 104.343C178.511 91.8638 170.425 82.7969 158.572 78.7268C156.253 77.9305 154.251 77.8989 152.855 78.6358Z" fill="#3A3B3F"/>
</svg>
