<svg width="256" height="225" viewBox="0 0 256 225" fill="none" xmlns="http://www.w3.org/2000/svg">
<path fill-rule="evenodd" clip-rule="evenodd" d="M50.1029 2.28141C47.9709 4.41338 47.8215 6.08338 47.8215 27.8332V51.1024L33.2775 51.5393C16.7076 52.0378 11.9418 53.7135 5.758 61.2148C0.156 68.0111 -0.295719 72.6549 0.112653 119.204L0.482241 161.41L3.68192 166.853C5.44202 169.847 8.99532 173.697 11.5779 175.408C16.0323 178.361 17.0863 178.54 32.0478 178.892L47.8215 179.263V199.71C47.8215 218.635 47.9914 220.326 50.1029 222.437C52.3387 224.673 53.9048 224.719 128.241 224.719C202.577 224.719 204.144 224.673 206.379 222.437C208.491 220.326 208.661 218.635 208.661 199.71V179.263L224.434 178.892C239.396 178.54 240.45 178.361 244.904 175.408C247.487 173.697 251.04 169.847 252.8 166.853L256 161.41V115.781C256 71.2484 255.941 70.0438 253.544 65.5905C247.761 54.8439 241.816 52.0903 223.205 51.5359L208.661 51.1024V27.8332C208.661 6.08338 208.511 4.41338 206.379 2.28141C204.144 0.0456281 202.577 0 128.241 0C53.9048 0 52.3387 0.0456281 50.1029 2.28141ZM195.855 32.2249L196.168 51.3317H128.269H60.3692V32.7006C60.3692 22.4525 60.716 13.7227 61.1392 13.2995C61.5624 12.8763 91.9759 12.6618 128.726 12.8238L195.543 13.1181L195.855 32.2249ZM239.723 68.1776L243.452 71.9054L243.778 113.756C244.126 158.371 243.952 160.076 238.581 164.3C236.111 166.244 233.925 166.543 222.195 166.543H208.661V146.58C208.661 128.139 208.487 126.445 206.379 124.337C204.144 122.101 202.577 122.055 128.241 122.055C53.9048 122.055 52.3387 122.101 50.1029 124.337C47.9949 126.445 47.8215 128.139 47.8215 146.58V166.543H34.287C22.5572 166.543 20.3716 166.244 17.9008 164.3C12.5315 160.076 12.3558 158.366 12.7037 113.825L13.03 72.0457L15.8817 68.9784C17.4502 67.2913 19.7601 65.4821 21.0149 64.9585C22.2697 64.435 71.1534 64.1053 129.645 64.2274L235.994 64.4498L239.723 68.1776ZM195.843 173.102L195.543 211.601H128.241H60.9396L60.6396 173.102L60.3384 134.603H128.241H196.144L195.843 173.102ZM84.0525 151.797C80.4296 153.908 79.3962 157.261 81.4175 160.345L83.2358 163.121H128.241H173.246L175.065 160.345C177.133 157.189 175.997 153.768 172.207 151.74C169.262 150.163 86.7651 150.217 84.0525 151.797ZM84.6833 183.641C79.1988 185.896 78.973 192.197 84.275 195.034C85.6484 195.77 102.116 196.201 128.789 196.201H171.121L173.921 193.401C177.293 190.03 177.355 189.253 174.541 185.776L172.361 183.083L129.769 182.849C106.343 182.721 86.0545 183.077 84.6833 183.641Z" fill="#3A3B3F"/>
</svg>
