<svg width="224" height="112" viewBox="0 0 224 112" fill="none" xmlns="http://www.w3.org/2000/svg">
<path fill-rule="evenodd" clip-rule="evenodd" d="M3.59954 0.231993C2.0308 0.771993 1.09322 1.65295 0.388317 3.24879L0.0539166 4.00608L0.00970702 55.0461C-0.0196639 88.989 0.0176618 106.501 0.121072 107.326C0.307547 108.811 0.688299 109.648 1.60002 110.574C2.57156 111.562 3.70249 111.977 5.17853 111.888C7.02431 111.777 8.46043 110.788 9.26599 109.072L9.69126 108.166V55.9261V3.68608L9.28588 2.88608C8.11915 0.583835 5.76672 -0.514087 3.59954 0.231993ZM217.246 0.251515C216.724 0.428155 216.002 0.808157 215.64 1.096C214.832 1.73856 214.055 3.05535 213.839 4.14735C213.727 4.71487 213.69 20.7738 213.718 56.4894L213.758 108.013L214.262 109.083C215.117 110.901 216.673 111.926 218.577 111.926C220.48 111.926 222.036 110.901 222.892 109.083L223.395 108.013V55.9294V3.84608L223.035 3.01184C222.614 2.03856 221.451 0.832956 220.522 0.408316C219.485 -0.0659237 218.345 -0.120645 217.246 0.251515ZM23.5049 0.259034C19.8527 0.859834 18.2411 5.6656 20.7234 8.55328C21.1195 9.01408 21.776 9.53888 22.2805 9.79808C23.0197 10.1776 23.3399 10.2453 24.3767 10.2408C25.4714 10.2362 25.7027 10.1782 26.5681 9.69215C28.2883 8.72591 29.095 7.32527 29.1062 5.28607C29.1152 3.61743 28.7085 2.62383 27.5708 1.53631C26.4371 0.452634 25.0247 0.00895409 23.5049 0.259034ZM42.9326 0.259034C40.051 0.732954 38.2582 3.95264 39.2089 6.94624C39.5519 8.02608 40.6106 9.23424 41.7082 9.79808C42.4503 10.179 42.7635 10.2448 43.8044 10.2374C44.8177 10.2302 45.1626 10.156 45.8094 9.80624C46.9611 9.18352 47.4421 8.69775 48.019 7.57423C48.4828 6.67087 48.5368 6.43311 48.5388 5.28607C48.5415 3.61615 48.1323 2.62031 46.9985 1.53631C45.8648 0.452634 44.4524 0.00895409 42.9326 0.259034ZM62.3602 0.259034C58.6489 0.869434 57.0845 5.6944 59.6469 8.62688C60.6856 9.81552 61.6362 10.2418 63.232 10.2344C64.2488 10.2298 64.588 10.1573 65.2371 9.80624C66.3888 9.18352 66.8697 8.69775 67.4466 7.57423C67.9104 6.67087 67.9644 6.43311 67.9664 5.28607C67.9692 3.61615 67.56 2.62031 66.4261 1.53631C65.2924 0.452634 63.88 0.00895409 62.3602 0.259034ZM81.7879 0.259034C78.9102 0.732314 77.1104 3.95007 78.0579 6.92799C78.4139 8.04719 79.5684 9.36431 80.6297 9.86191C81.8119 10.4165 83.5815 10.392 84.6647 9.80624C85.8165 9.18352 86.2974 8.69775 86.8743 7.57423C87.3369 6.67327 87.3924 6.43007 87.3968 5.28607C87.4011 4.20159 87.3364 3.86671 86.9736 3.09359C86.0094 1.04015 83.9343 -0.0940859 81.7879 0.259034ZM101.216 0.259034C100.294 0.410554 99.0609 1.11344 98.4591 1.83024C96.7874 3.8216 96.8056 6.68512 98.5023 8.62688C99.5387 9.8128 100.491 10.2408 102.087 10.2379C103.184 10.2358 103.411 10.1794 104.275 9.69423C104.805 9.39631 105.419 8.93072 105.638 8.65936C106.897 7.10272 107.21 4.81743 106.401 3.09359C105.437 1.04015 103.362 -0.0940859 101.216 0.259034ZM120.643 0.259034C119.722 0.410554 118.489 1.11344 117.887 1.83024C116.215 3.8216 116.233 6.68512 117.93 8.62688C118.969 9.81552 119.919 10.2418 121.515 10.2344C122.538 10.2296 122.87 10.1581 123.537 9.79744C125.301 8.844 126.254 7.23375 126.256 5.20607C126.257 4.21423 126.183 3.84767 125.829 3.09359C124.865 1.04015 122.79 -0.0940859 120.643 0.259034ZM140.071 0.259034C137.193 0.732474 135.373 3.98015 136.334 6.92799C136.7 8.05103 137.859 9.36832 138.913 9.86C140.663 10.6765 142.937 10.2294 144.303 8.8008C145.718 7.32112 146.115 4.93199 145.253 3.08879C144.295 1.04159 142.216 -0.0939259 140.071 0.259034ZM159.517 0.256153C156.92 0.684473 155.041 3.46623 155.554 6.12159C155.768 7.22831 156.237 8.11647 157.031 8.91823C158.853 10.7589 161.91 10.7054 163.731 8.8008C165.145 7.32112 165.542 4.93199 164.68 3.08879C163.726 1.04927 161.642 -0.0942468 159.517 0.256153ZM178.944 0.256153C175.882 0.761113 174.052 4.25904 175.29 7.2408C175.694 8.21536 176.845 9.42895 177.777 9.86383C179.517 10.6763 181.795 10.2262 183.158 8.8008C184.573 7.32112 184.97 4.93199 184.108 3.08879C183.154 1.04927 181.069 -0.0942468 178.944 0.256153ZM198.372 0.256153C195.31 0.761113 193.48 4.25904 194.717 7.2408C195.122 8.21536 196.272 9.42895 197.204 9.86383C198.945 10.6763 201.223 10.2262 202.586 8.8008C203.99 7.33248 204.392 4.91951 203.537 3.09279C202.581 1.04895 200.499 -0.0945668 198.372 0.256153ZM44.1507 30.7232C43.7524 30.8379 43.2017 31.0715 42.9269 31.2424C42.1331 31.7363 16.7998 51.7064 16.0675 52.4155C14.5642 53.871 14.1637 56.2349 15.0879 58.1981C15.3496 58.7541 15.7568 59.3962 15.9929 59.6246C16.9916 60.5914 42.6484 80.6761 43.3455 81.0371C44.3779 81.5715 46.2093 81.5978 47.2732 81.0936C48.281 80.616 49.3091 79.5661 49.8048 78.5088C50.1647 77.7408 50.2261 77.415 50.2161 76.3261C50.2028 74.8824 49.8891 73.952 49.0977 73.0093C48.8375 72.6992 45.3768 69.8987 41.4074 66.7858L34.1904 61.1261L73.0083 61.0858C94.3582 61.0635 129.254 61.0635 150.554 61.0858L189.282 61.1261L181.935 66.9067C177.112 70.7011 174.447 72.9002 174.179 73.3067C173.503 74.3302 173.262 75.1201 173.254 76.3345C173.242 78.3168 174.322 80.1334 176.025 80.9937C176.743 81.3563 177.103 81.4326 178.126 81.4387C179.209 81.4451 179.468 81.387 180.237 80.9661C181.321 80.3718 207.109 60.0642 207.753 59.2976C208.565 58.3294 208.861 57.4427 208.852 56.0061C208.842 54.4813 208.456 53.487 207.485 52.4861C206.463 51.4325 181.338 31.7312 180.261 31.1394C179.386 30.6582 179.134 30.5939 178.156 30.6019C176.9 30.6125 175.994 30.9062 175.103 31.5918C173.244 33.0214 172.604 35.6165 173.58 37.7661C173.83 38.3187 174.303 38.9976 174.694 39.3661C175.066 39.7181 178.485 42.4541 182.289 45.4461L189.207 50.8861L150.517 50.9264C129.237 50.9486 94.379 50.9486 73.0546 50.9264L34.2831 50.8861L41.7671 44.9931C46.6472 41.1504 49.4084 38.8728 49.7034 38.4469C51.457 35.9149 50.5335 32.3085 47.7817 30.9421C46.7442 30.4269 45.451 30.349 44.1507 30.7232ZM23.2186 101.898C20.9975 102.546 19.5559 104.431 19.5392 106.71C19.5288 108.126 19.8944 109.189 20.7234 110.153C21.7179 111.31 22.8322 111.837 24.2957 111.842C26.2337 111.849 27.7753 110.852 28.69 109.001C29.2569 107.853 29.2855 106.008 28.7554 104.772C28.338 103.799 27.1772 102.594 26.2456 102.168C25.3631 101.765 24.0711 101.649 23.2186 101.898ZM42.6462 101.898C42.2616 102.01 41.6322 102.295 41.2474 102.531C38.7075 104.088 38.167 107.845 40.1511 110.153C41.1455 111.31 42.2598 111.837 43.7233 111.842C45.6613 111.849 47.203 110.852 48.1176 109.001C48.6845 107.853 48.7132 106.008 48.1831 104.772C47.7656 103.799 46.6049 102.594 45.6733 102.168C44.7908 101.765 43.4987 101.649 42.6462 101.898ZM62.0739 101.898C61.6893 102.01 61.0598 102.295 60.6751 102.531C58.1351 104.088 57.5947 107.845 59.5787 110.153C61.4569 112.338 64.6327 112.45 66.5924 110.401C67.9552 108.975 68.3856 106.592 67.6088 104.772C67.1936 103.799 66.0345 102.595 65.1009 102.168C64.2184 101.765 62.9264 101.649 62.0739 101.898ZM81.6265 101.86C77.9963 102.755 76.5585 107.306 79.0064 110.153C80.8846 112.338 84.0603 112.45 86.0201 110.401C87.8411 108.496 87.8922 105.299 86.1323 103.393C85.3852 102.584 84.5252 102.077 83.5318 101.862C82.6121 101.662 82.4281 101.662 81.6265 101.86ZM100.829 101.932C99.3168 102.358 98.306 103.263 97.6404 104.785C96.565 107.244 97.6057 110.176 99.9866 111.394C101.749 112.296 104.033 111.88 105.448 110.401C107.269 108.496 107.32 105.299 105.56 103.393C104.813 102.584 103.953 102.077 102.959 101.862C101.964 101.646 101.83 101.65 100.829 101.932ZM120.256 101.924C118.733 102.369 117.731 103.268 117.068 104.785C115.993 107.244 117.033 110.176 119.414 111.394C121.176 112.296 123.461 111.88 124.875 110.401C126.241 108.972 126.669 106.593 125.888 104.763C124.964 102.597 122.392 101.3 120.256 101.924ZM139.684 101.924C137.091 102.681 135.554 105.338 136.196 107.956C136.488 109.15 136.849 109.787 137.677 110.569C138.636 111.475 139.52 111.827 140.866 111.837C142.236 111.848 143.343 111.379 144.291 110.388C145.24 109.396 145.687 108.239 145.675 106.806C145.661 105.208 145.232 104.184 144.137 103.136C142.886 101.941 141.2 101.482 139.684 101.924ZM159.082 101.932C158.011 102.244 157.386 102.657 156.635 103.549C155.078 105.4 155.114 108.288 156.717 110.153C158.603 112.347 161.745 112.452 163.718 110.388C165.15 108.89 165.547 106.541 164.68 104.689C163.652 102.491 161.241 101.304 159.082 101.932ZM178.51 101.932C177.467 102.236 176.844 102.637 176.126 103.467C174.363 105.509 174.506 108.546 176.458 110.518C177.807 111.881 180.025 112.265 181.71 111.428C183.508 110.535 184.527 108.866 184.533 106.805C184.536 105.811 184.463 105.447 184.11 104.693C183.08 102.491 180.671 101.303 178.51 101.932ZM197.938 101.932C196.866 102.244 196.241 102.657 195.49 103.549C194.718 104.467 194.335 105.618 194.352 106.974C194.369 108.288 194.758 109.248 195.702 110.304C196.66 111.375 197.666 111.822 199.149 111.836C200.519 111.848 201.625 111.38 202.574 110.388C203.995 108.902 204.396 106.529 203.537 104.693C202.508 102.491 200.098 101.303 197.938 101.932Z" fill="#3A3B3F"/>
</svg>
